# xmcd
#
# Track frame offsets:
#	150
#	26143
#	53428
#	76908
#	94690
#	113720
#	132420
#	160205
#	182668
#	198718
#	214148
#	230565
#	248313
#	272295
#
# Disc length: 3811
#
# Revision: 2
# Processed by: cddbd v1.5.1PL0 Copyright (c) Steve Scherf et al.
# Submitted via: ExactAudioCopy v0.90b4
# Normalized: r1:DSETVAR1
#
DISCID=b20ee10e
DTITLE=Various Artist - New Age Music and New Sounds 29 - Inside
DYEAR=1900
DGENRE=New Age
TTITLE0=Nando Lauria - Earth Tribe
TTITLE1=Wind Machine - Voices in the wind
TTITLE2=Tangerine Dream - After the call
TTITLE3=Dancing Fantasy - Nippon nights
TTITLE4=Software - Cool-Blue
TTITLE5=Atmosphere - The sensation of life
TTITLE6=Gigi Pellegrino - Nature's romance
TTITLE7=Patrich O'Hearn - Delicate
TTITLE8=Peter Bardens - Sea of dreams
TTITLE9=Michael Whalen - Homeward
TTITLE10=Kit Watkins&Coco Roussel - Forte
TTITLE11=Kristian Borregaard - Confluence
TTITLE12=Peacock&Nery - Trade winds
TTITLE13=Sylvan Grey - Dreamlight
EXTD=
EXTT0=
EXTT1=
EXTT2=
EXTT3=
EXTT4=
EXTT5=
EXTT6=
EXTT7=
EXTT8=
EXTT9=
EXTT10=
EXTT11=
EXTT12=
EXTT13=
PLAYORDER=
